<svg xmlns="http://www.w3.org/2000/svg" width="136" height="183" viewBox="0 0 32.7494 44.0001"><defs><style>.a{fill:#BF4122;}</style></defs><title>medal_sidebar</title><path class="a" d="M17.7747,17.33h5.61a.94.94,0,0,0,.83-.5l8.42-15.44a1,1,0,0,0,0-.93,1,1,0,0,0-.83-.46h-11.23a1,1,0,0,0-.85.54l-2.74,5.75a.45.45,0,0,1-.41.26h0a.45.45,0,0,1-.4-.24L12.9847.49a1,1,0,0,0-.83-.49H.9247a1,1,0,0,0-.81.46,1,1,0,0,0,0,.93l8.41,15.44a.93.93,0,0,0,.82.5h5.64a.46.46,0,0,1,.46.46v1.92a.47.47,0,0,1-.46.46.5.5,0,0,1-.21-.05,3.4393,3.4393,0,0,0-1.54-.47,1.87,1.87,0,0,0-.62.1,3.49,3.49,0,0,0-1.8,2.14,3.38,3.38,0,0,1-.58,1.05.1793.1793,0,0,1-.07,0,3.191,3.191,0,0,1-1.18.32,3.38,3.38,0,0,0-2.49,1.12,3.59,3.59,0,0,0-.23,2.75,3.4892,3.4892,0,0,1,.1,1.31h0a3.2315,3.2315,0,0,1-.74.89h0a3.54,3.54,0,0,0-1.4,2.43,3.59,3.59,0,0,0,1.36,2.5,3.28,3.28,0,0,1,.77.91h0a3.73,3.73,0,0,1-.1,1.31,3.6,3.6,0,0,0,.23,2.75,3.38,3.38,0,0,0,2.5,1.16,3.07,3.07,0,0,1,1.12.25l.07.06a3.6013,3.6013,0,0,1,.61,1.06,3.45,3.45,0,0,0,1.79,2.14,1.91,1.91,0,0,0,.62.1,4.3207,4.3207,0,0,0,2-.72h0a3.28,3.28,0,0,1,1.08-.48h.07a3.3711,3.3711,0,0,1,1.1.48h0a4.28,4.28,0,0,0,2,.72,1.9323,1.9323,0,0,0,.63-.1,3.51,3.51,0,0,0,1.91-2.14,3.4586,3.4586,0,0,1,.59-1,.18.18,0,0,1,.07-.05,3.18,3.18,0,0,1,1.14-.27,3.36,3.36,0,0,0,2.49-1.12,3.55,3.55,0,0,0,.24-2.75,3.4892,3.4892,0,0,1-.1-1.31h0a3.28,3.28,0,0,1,.77-.91,3.56,3.56,0,0,0,1.4-2.44,3.56,3.56,0,0,0-1.4-2.43,3.28,3.28,0,0,1-.77-.91h0a3.4892,3.4892,0,0,1,.1-1.31,3.59,3.59,0,0,0-.24-2.75,3.34,3.34,0,0,0-2.49-1.12,3.07,3.07,0,0,1-1.17-.39h-.08a3.7792,3.7792,0,0,1-.6-1.08,3.52,3.52,0,0,0-1.79-2.13,1.87,1.87,0,0,0-.62-.1,3.4393,3.4393,0,0,0-1.54.47.5413.5413,0,0,1-.21.05.4.4,0,0,1-.24-.07.44.44,0,0,1-.22-.39V17.79a.45.45,0,0,1,.44-.46C17.7612,17.33,17.7679,17.33,17.7747,17.33Zm2.6-13.78.67-1.4a.47.47,0,0,1,.42-.26h8a.45.45,0,0,1,.4.68L29.0847,4a.46.46,0,0,1-.41.24h-7.88a.46.46,0,0,1-.39-.24A.51.51,0,0,1,20.3747,3.55Zm-2.57,5.39,1.23-2.58a.47.47,0,0,1,.42-.26h7.69a.45.45,0,0,1,.4.22.5.5,0,0,1,0,.46l-4.56,8.42a.45.45,0,0,1-.4.24h-1.17a.46.46,0,0,1-.43-.24l-3.17-5.84A.48.48,0,0,1,17.8047,8.94ZM3.6547,4l-.77-1.43a.47.47,0,0,1,0-.46.45.45,0,0,1,.4-.22h8a.45.45,0,0,1,.4.24l.77,1.4a.47.47,0,0,1,0,.46.45.45,0,0,1-.4.22h-8A.45.45,0,0,1,3.6547,4Zm14.79,18a7.0735,7.0735,0,0,1,.77-.4.3493.3493,0,0,1,.17,0,.48.48,0,0,1,.39.21c.14.23.31.59.43.85h0a4.5291,4.5291,0,0,0,1.2,1.81,4.31,4.31,0,0,0,2,.65h0a6.3984,6.3984,0,0,1,.92.17.45.45,0,0,1,.31.43,6.3652,6.3652,0,0,1-.13,1.07,4.8088,4.8088,0,0,0,0,2.2,4.58,4.58,0,0,0,1.25,1.72h0a5.0043,5.0043,0,0,1,.75.85.49.49,0,0,1,0,.44,4.6186,4.6186,0,0,1-.75.86h0a4.49,4.49,0,0,0-1.25,1.72,4.8088,4.8088,0,0,0,0,2.2,5.8288,5.8288,0,0,1,.13,1.07.47.47,0,0,1-.31.43,8.57,8.57,0,0,1-.93.18h0a4.2407,4.2407,0,0,0-2.05.65,4.65,4.65,0,0,0-1.12,1.89l-.07.14-.32.71a.48.48,0,0,1-.42.26.448.448,0,0,1-.16,0,7.0659,7.0659,0,0,1-.81-.42,4.391,4.391,0,0,0-2.08-.74,4.39,4.39,0,0,0-2.07.74,7.1911,7.1911,0,0,1-.77.4h-.18a.44.44,0,0,1-.38-.21,6.51,6.51,0,0,1-.45-.88,4.46,4.46,0,0,0-1.2-1.79,4.21,4.21,0,0,0-2.05-.66h0a8.1407,8.1407,0,0,1-.93-.18.46.46,0,0,1-.35-.46,5.8288,5.8288,0,0,1,.13-1.07,4.8116,4.8116,0,0,0,0-2.2,4.39,4.39,0,0,0-1.25-1.72l-.07-.07c-.48-.48-.62-.62-.67-.69a.49.49,0,0,1-.08-.42,3.2212,3.2212,0,0,1,.81-1h0A4.26,4.26,0,0,0,8.1647,29a4.8116,4.8116,0,0,0,0-2.2,5.83,5.83,0,0,1-.18-1.06.45.45,0,0,1,.31-.43,6.5076,6.5076,0,0,1,.91-.17h0a4.31,4.31,0,0,0,2.05-.65,4.6,4.6,0,0,0,1.2-1.81l.11-.24.28-.6a.46.46,0,0,1,.41-.26.5106.5106,0,0,1,.17,0,8.3061,8.3061,0,0,1,.78.4h0a4.39,4.39,0,0,0,2.07.74A4.39,4.39,0,0,0,18.4447,22Zm-8.26-6.56a.46.46,0,0,1-.41-.24l-4.59-8.42a.46.46,0,0,1,.4-.68h8a.45.45,0,0,1,.4.24l4.6,8.43a.47.47,0,0,1,0,.46.5.5,0,0,1-.4.22Z"/><path class="a" d="M9.8147,31.82a6.56,6.56,0,1,0,6.57-6.55h-.02A6.56,6.56,0,0,0,9.8147,31.82Zm11.22,0a4.67,4.67,0,1,1-4.67-4.67h0A4.68,4.68,0,0,1,21.0347,31.82Z"/></svg>