<svg xmlns="http://www.w3.org/2000/svg" width="165" height="222" viewBox="0 0 29.42 39.76"><defs><style>.a{fill:#3E3B3B;}</style></defs><title>medal_ad</title><path class="a" d="M25.52,25.24a3.2161,3.2161,0,0,1-.77-.91,2.68,2.68,0,0,1-.02-.4,3.4985,3.4985,0,0,1,.12-.91,3.6052,3.6052,0,0,0-.24-2.75,3.3367,3.3367,0,0,0-2.49-1.12,3.0565,3.0565,0,0,1-1.17-.39h-.08a3.6893,3.6893,0,0,1-.6-1.08,3.5134,3.5134,0,0,0-1.79-2.13,1.8728,1.8728,0,0,0-.62-.1,3.3782,3.3782,0,0,0-1.54.47.5374.5374,0,0,1-.21.05.3986.3986,0,0,1-.24-.07.4447.4447,0,0,1-.22-.39V13.55a.4481.4481,0,0,1,.44-.46h5.63a.929.929,0,0,0,.83-.5L29.42,0H16.3l-.98,2.05a.4413.4413,0,0,1-.41.26.4474.4474,0,0,1-.4-.24L13.38,0H0L6.86,12.59a.9251.9251,0,0,0,.82.5h5.64a.4653.4653,0,0,1,.46.46v1.92a.4793.4793,0,0,1-.46.46.5374.5374,0,0,1-.21-.05,3.3782,3.3782,0,0,0-1.54-.47,1.8728,1.8728,0,0,0-.62.1,3.5154,3.5154,0,0,0-1.8,2.14,3.4794,3.4794,0,0,1-.58,1.05H8.5a3.2388,3.2388,0,0,1-1.18.32,3.3893,3.3893,0,0,0-2.49,1.12,3.603,3.603,0,0,0-.23,2.75,3.4111,3.4111,0,0,1,.1,1.31,3.1688,3.1688,0,0,1-.74.89,3.5271,3.5271,0,0,0-1.4,2.43,3.5752,3.5752,0,0,0,1.36,2.5,3.2161,3.2161,0,0,1,.77.91c.01.12.02.25.02.37a3.7279,3.7279,0,0,1-.12.94,3.603,3.603,0,0,0,.23,2.75,3.3806,3.3806,0,0,0,2.5,1.16,3.0472,3.0472,0,0,1,1.12.25l.07.06a3.6149,3.6149,0,0,1,.61,1.06,3.4684,3.4684,0,0,0,1.79,2.14,1.8728,1.8728,0,0,0,.62.1,4.3551,4.3551,0,0,0,2-.72,3.2791,3.2791,0,0,1,1.08-.48h.07a3.381,3.381,0,0,1,1.1.48,4.3551,4.3551,0,0,0,2,.72,1.9316,1.9316,0,0,0,.63-.1,3.5192,3.5192,0,0,0,1.91-2.14,3.6118,3.6118,0,0,1,.59-1,.1794.1794,0,0,1,.07-.05,3.2229,3.2229,0,0,1,1.14-.27,3.3367,3.3367,0,0,0,2.49-1.12,3.5605,3.5605,0,0,0,.24-2.75,3.4111,3.4111,0,0,1-.1-1.31,3.2161,3.2161,0,0,1,.77-.91,3.5691,3.5691,0,0,0,1.4-2.44A3.5271,3.5271,0,0,0,25.52,25.24ZM16.14,4.7l1.23-2.58a.4664.4664,0,0,1,.42-.26h7.69a.4611.4611,0,0,1,.4.22.53.53,0,0,1,0,.46l-4.56,8.42a.4474.4474,0,0,1-.4.24H19.75a.4469.4469,0,0,1-.43-.24L16.15,5.12A.477.477,0,0,1,16.14,4.7ZM8.52,11.2a.4629.4629,0,0,1-.41-.24L3.52,2.54a.4585.4585,0,0,1,.18-.62.4282.4282,0,0,1,.22-.06h8a.4474.4474,0,0,1,.4.24l4.6,8.43a.4708.4708,0,0,1,0,.46.4982.4982,0,0,1-.4.22ZM24.84,27.76a4.4131,4.4131,0,0,1-.75.86,4.3717,4.3717,0,0,0-1.25,1.72,4.8088,4.8088,0,0,0,0,2.2,5.4912,5.4912,0,0,1,.13,1.07.4738.4738,0,0,1-.31.43,7.6234,7.6234,0,0,1-.93.18,4.2709,4.2709,0,0,0-2.05.65,4.6642,4.6642,0,0,0-1.12,1.89l-.07.14-.32.71a.4664.4664,0,0,1-.42.26.43.43,0,0,1-.16,0,6.2141,6.2141,0,0,1-.81-.42,4.4218,4.4218,0,0,0-2.08-.74,4.4233,4.4233,0,0,0-2.07.74,8.0413,8.0413,0,0,1-.77.4h-.18a.4533.4533,0,0,1-.38-.21,7.29,7.29,0,0,1-.45-.88,4.4608,4.4608,0,0,0-1.2-1.79,4.2485,4.2485,0,0,0-2.05-.66,7.6234,7.6234,0,0,1-.93-.18.4527.4527,0,0,1-.35-.46,5.4912,5.4912,0,0,1,.13-1.07,4.8088,4.8088,0,0,0,0-2.2A4.3717,4.3717,0,0,0,5.2,28.68l-.07-.07c-.48-.48-.62-.62-.67-.69a.4882.4882,0,0,1-.08-.42,3.3976,3.3976,0,0,1,.81-1A4.32,4.32,0,0,0,6.5,24.76a4.8088,4.8088,0,0,0,0-2.2,6.3463,6.3463,0,0,1-.18-1.06.4411.4411,0,0,1,.31-.43,5.6124,5.6124,0,0,1,.91-.17,4.2709,4.2709,0,0,0,2.05-.65,4.5994,4.5994,0,0,0,1.2-1.81l.11-.24.28-.6a.4629.4629,0,0,1,.41-.26.4854.4854,0,0,1,.17,0,7.157,7.157,0,0,1,.78.4,4.4233,4.4233,0,0,0,2.07.74,4.3477,4.3477,0,0,0,2.17-.72,8.0413,8.0413,0,0,1,.77-.4.4854.4854,0,0,1,.17,0,.4706.4706,0,0,1,.39.21c.14.23.31.59.43.85a4.5994,4.5994,0,0,0,1.2,1.81,4.3033,4.3033,0,0,0,2,.65,5.7322,5.7322,0,0,1,.92.17.4411.4411,0,0,1,.31.43,6.3842,6.3842,0,0,1-.13,1.07,4.8088,4.8088,0,0,0,0,2.2,4.6269,4.6269,0,0,0,1.25,1.72,5.0736,5.0736,0,0,1,.75.85A.4872.4872,0,0,1,24.84,27.76Z"/><path class="a" d="M8.15,27.58a6.56,6.56,0,1,0,6.57-6.55H14.7A6.56,6.56,0,0,0,8.15,27.58Zm11.22,0a4.67,4.67,0,1,1-4.67-4.67h0A4.68,4.68,0,0,1,19.37,27.58Z"/></svg>