<svg xmlns="http://www.w3.org/2000/svg" width="155" height="166" viewBox="0 0 28 30"><defs><style>.a{fill:none;}.a,.b{stroke:#fff;stroke-linecap:round;stroke-linejoin:round;}.b{fill:#cc2229;}</style></defs><title>emergency_icon</title><path class="a" d="M25.5,25.5H2.5a2,2,0,0,0-2,2h0a2,2,0,0,0,2,2h23a2,2,0,0,0,2-2h0A2,2,0,0,0,25.5,25.5Z"/><path class="a" d="M24.5,25.5H3.5L5.1,11.06a4,4,0,0,1,4-3.56h9.84a4,4,0,0,1,4,3.56Z"/><circle class="b" cx="14" cy="16" r="2.5"/><line class="a" x1="14" y1="25.5" x2="14" y2="18.5"/><line class="a" x1="14" y1="0.5" x2="14" y2="5.5"/><line class="a" x1="9.5" y1="5.5" x2="8.5" y2="2.5"/><line class="a" x1="18.5" y1="5.5" x2="19.5" y2="2.5"/><line class="a" x1="5.5" y1="7.5" x2="2.5" y2="4.5"/><line class="a" x1="3.5" y1="10.5" x2="1.5" y2="9.5"/><line class="a" x1="3.5" y1="14.5" x2="0.5" y2="14.5"/><line class="a" x1="22.5" y1="7.5" x2="25.5" y2="4.5"/><line class="a" x1="24.5" y1="10.5" x2="26.5" y2="9.5"/><line class="a" x1="24.5" y1="14.5" x2="27.5" y2="14.5"/></svg>